<svg width="100" height="38" viewBox="0 0 100 38" fill="none" xmlns="http://www.w3.org/2000/svg">
<path d="M37.155 27.832V6.66203H40.896V27.832H37.155ZM57.674 26.034C56.1854 27.5034 54.368 28.238 52.222 28.238C50.076 28.238 48.2587 27.5034 46.77 26.034C45.3007 24.5454 44.566 22.728 44.566 20.582C44.566 18.436 45.3007 16.6284 46.77 15.159C48.2587 13.6704 50.076 12.926 52.222 12.926C54.368 12.926 56.1854 13.6704 57.674 15.159C59.1627 16.6284 59.907 18.436 59.907 20.582C59.907 22.728 59.1627 24.5454 57.674 26.034ZM49.409 23.453C50.163 24.207 51.1007 24.584 52.222 24.584C53.3434 24.584 54.281 24.207 55.035 23.453C55.789 22.699 56.166 21.742 56.166 20.582C56.166 19.422 55.789 18.465 55.035 17.711C54.281 16.957 53.3434 16.58 52.222 16.58C51.1007 16.58 50.163 16.957 49.409 17.711C48.6744 18.465 48.307 19.422 48.307 20.582C48.307 21.742 48.6744 22.699 49.409 23.453ZM74.6458 13.332H78.2998V27.136C78.2998 29.3787 77.5554 31.0897 76.0668 32.269C74.5974 33.4484 72.8188 34.038 70.7308 34.038C69.1648 34.038 67.7824 33.7384 66.5838 33.139C65.4044 32.5397 64.4958 31.66 63.8578 30.5L67.0478 28.673C67.7824 30.0264 69.0488 30.703 70.8468 30.703C72.0261 30.703 72.9541 30.3937 73.6308 29.775C74.3074 29.1564 74.6458 28.2767 74.6458 27.136V25.57C73.5438 27.0394 71.9971 27.774 70.0058 27.774C67.9564 27.774 66.2358 27.0587 64.8438 25.628C63.4711 24.178 62.7848 22.4187 62.7848 20.35C62.7848 18.3007 63.4808 16.551 64.8728 15.101C66.2648 13.651 67.9758 12.926 70.0058 12.926C71.9971 12.926 73.5438 13.6607 74.6458 15.13V13.332ZM67.6568 23.221C68.4301 23.9557 69.4064 24.323 70.5858 24.323C71.7651 24.323 72.7318 23.9557 73.4858 23.221C74.2591 22.467 74.6458 21.51 74.6458 20.35C74.6458 19.2094 74.2591 18.2717 73.4858 17.537C72.7318 16.783 71.7651 16.406 70.5858 16.406C69.4064 16.406 68.4301 16.783 67.6568 17.537C66.9028 18.2717 66.5258 19.2094 66.5258 20.35C66.5258 21.51 66.9028 22.467 67.6568 23.221ZM95.0461 26.034C93.5574 27.5034 91.7401 28.238 89.5941 28.238C87.4481 28.238 85.6308 27.5034 84.1421 26.034C82.6728 24.5454 81.9381 22.728 81.9381 20.582C81.9381 18.436 82.6728 16.6284 84.1421 15.159C85.6308 13.6704 87.4481 12.926 89.5941 12.926C91.7401 12.926 93.5574 13.6704 95.0461 15.159C96.5348 16.6284 97.2791 18.436 97.2791 20.582C97.2791 22.728 96.5348 24.5454 95.0461 26.034ZM86.7811 23.453C87.5351 24.207 88.4728 24.584 89.5941 24.584C90.7154 24.584 91.6531 24.207 92.4071 23.453C93.1611 22.699 93.5381 21.742 93.5381 20.582C93.5381 19.422 93.1611 18.465 92.4071 17.711C91.6531 16.957 90.7154 16.58 89.5941 16.58C88.4728 16.58 87.5351 16.957 86.7811 17.711C86.0464 18.465 85.6791 19.422 85.6791 20.582C85.6791 21.742 86.0464 22.699 86.7811 23.453Z" fill="#0A0A0B"/>
<path opacity="0.8" d="M7.5486 12.4395C6.83955 11.6623 7.17845 10.4348 8.19293 10.1058L26.7244 4.09554C27.8525 3.72966 28.9467 4.72902 28.6389 5.84403L23.0597 26.0517C22.7518 27.1667 21.2893 27.5012 20.5009 26.6369L7.5486 12.4395Z" fill="#0A0A0B"/>
<path opacity="0.8" d="M6.71047 0.913431C7.10107 -0.0453768 8.38384 -0.309676 9.1493 0.410943L22.0934 12.5969C22.9446 13.3982 22.5257 14.7874 21.3605 15.0275L1.81125 19.0554C0.646025 19.2955 -0.328972 18.1934 0.105373 17.1272L6.71047 0.913431Z" fill="#0A0A0B"/>
</svg>
